# xmcd
#
# Track frame offsets: 
#        150
#        16904
#        33197
#        49710
#        71726
#        85821
#        101971
#        119097
#        136133
#        148134
#        167121
#        184678
#        202476
#        216767
#        232590
#        247138
#        261721
#        276727
#        300516
#        317963
#
# Disc length: 4569 seconds
#
# Revision: 0
# Processed by: cddbd v1.5.1PL2 Copyright (c) Steve Scherf et al.
# Submitted via: ExactAudioCopy v0.95b1
#
DISCID=3d11d714
DTITLE=Emmylou Harris - Heartaches and Highways-The Very Best Of Emmylou
DTITLE=Harris
DYEAR=1900
DGENRE=Country
TTITLE0=Love Hurts (Featuring Gram Parsons)
TTITLE1=Boulder To Birmingham
TTITLE2=Making Believe
TTITLE3=Pancho and Lefty
TTITLE4=One Of These Days
TTITLE5=(Lost His Love) On Our Last Date
TTITLE6=Born To Run
TTITLE7=Beneath Still Waters
TTITLE8=If I Could Only Win Your Love
TTITLE9=Together Again
TTITLE10=That Lovin' You Feelin' Again (Featuring Roy Orbison)
TTITLE11=To Know Him Is To Love Him (Featuring Dolly Parton and Linda Ro
TTITLE11=nstadt)
TTITLE12=Two More Bottles Of Wine
TTITLE13=Wayfaring Stranger
TTITLE14=Calling My Children Home
TTITLE15=Green Pastures
TTITLE16=Orphan Girl
TTITLE17=Michaelangelo
TTITLE18=Here I Am
TTITLE19=The Connection
EXTD=
EXTT0=
EXTT1=
EXTT2=
EXTT3=
EXTT4=
EXTT5=
EXTT6=
EXTT7=
EXTT8=
EXTT9=
EXTT10=
EXTT11=
EXTT12=
EXTT13=
EXTT14=
EXTT15=
EXTT16=
EXTT17=
EXTT18=
EXTT19=
PLAYORDER=
